<svg height='300px' width='300px'  fill="#27aae2" xmlns="http://www.w3.org/2000/svg" xmlns:xlink="http://www.w3.org/1999/xlink" version="1.1" x="0px" y="0px" viewBox="0 0 100 100" style="enable-background:new 0 0 100 100;" xml:space="preserve"><path d="M87.7,38C87.1,17.7,70.4,1.4,50,1.4S12.9,17.7,12.3,38c-4.7,1-8.3,5.2-8.3,10.3v11  c0,5.8,4.7,10.5,10.5,10.5h4.9C20.4,85.8,33.7,98.6,50,98.6c11.1,0,20.9-6,26.2-14.8h3.2c5.8,0,10.5-4.7,10.5-10.5v-4.6  c3.5-1.7,6-5.3,6-9.5v-11C95.9,43.2,92.4,39,87.7,38z M50,6.4c17.6,0,32,13.9,32.7,31.4h-0.2c-1.7-5.2-4.6-9.9-8.4-13.6  c-6.4-6.3-15-9.5-24.8-9.4c-14.5,0.2-27,9.8-31.7,23h-0.3C18,20.3,32.4,6.4,50,6.4z M50,93.6c-14.1,0-25.6-11.5-25.6-25.6v-9.5  c0-2.7,1.3-5.1,3.6-6.6l22-14.4l22,14.4c2.2,1.5,3.6,3.9,3.6,6.6V68c0,3.9-0.9,7.5-2.4,10.8H62.4v-2.3c0-1.4-1.1-2.5-2.5-2.5H43.8  c-1.4,0-2.5,1.1-2.5,2.5v8.4c0,1.4,1.1,2.5,2.5,2.5h16.1c1.4,0,2.5-1.1,2.5-2.5v-1.1h7.8C65.5,89.8,58.2,93.6,50,93.6z M79.4,78.8  h-0.8c1.1-2.8,1.7-5.9,1.9-9h4.4v3.5C84.9,76.3,82.5,78.8,79.4,78.8z"></path></svg>